<svg width="18" height="18" viewBox="0 0 18 18" fill="none" xmlns="http://www.w3.org/2000/svg">
<path d="M10.5084 2.1175C10.2231 2.1175 9.99189 1.88627 9.99189 1.60098V1.033H6.06648V1.60102C6.06648 1.88627 5.83526 2.11753 5.54996 2.11753C5.26467 2.11753 5.03345 1.88631 5.03345 1.60102V0.516516C5.03348 0.231223 5.26471 0 5.54996 0H10.5084C10.7937 0 11.0249 0.231223 11.0249 0.516516V1.60102C11.0249 1.88627 10.7936 2.1175 10.5084 2.1175Z" fill="#B3404A"/>
<path d="M12.8844 17.9998C10.7199 17.9998 8.95898 16.2389 8.95898 14.0744C8.95898 11.9098 10.7199 10.1489 12.8844 10.1489C15.049 10.1489 16.8098 11.9099 16.8098 14.0744C16.8098 16.2389 15.0489 17.9998 12.8844 17.9998ZM12.8844 11.182C11.2896 11.182 9.99202 12.4795 9.99202 14.0744C9.99202 15.6693 11.2896 16.9668 12.8844 16.9668C14.4793 16.9668 15.7768 15.6693 15.7768 14.0744C15.7768 12.4795 14.4793 11.182 12.8844 11.182Z" fill="#B3404A"/>
<path d="M10.4655 16.9926H3.69C3.42369 16.9926 3.20108 16.7902 3.17581 16.5251L2.14271 5.67873C2.12892 5.53389 2.17684 5.38996 2.27472 5.28228C2.37266 5.17463 2.51139 5.11328 2.65687 5.11328H13.4016C13.6869 5.11328 13.9181 5.3445 13.9181 5.6298C13.9181 5.91505 13.6869 6.14631 13.4016 6.14631H3.22496L4.15969 15.9596H10.4654C10.7507 15.9596 10.9819 16.1908 10.9819 16.4761C10.9819 16.7614 10.7507 16.9926 10.4655 16.9926Z" fill="#B3404A"/>
<path d="M5.56809 14.9263C5.30488 14.9263 5.07998 14.7261 5.05453 14.4588L4.54484 9.10796C4.51784 8.82401 4.72607 8.5719 5.01006 8.54483C5.2945 8.51787 5.54619 8.72606 5.57319 9.01005L6.08288 14.3609C6.10988 14.6448 5.90165 14.8969 5.61766 14.924C5.601 14.9256 5.58447 14.9263 5.56809 14.9263Z" fill="#B3404A"/>
<path d="M10.7925 11.9001C10.7755 11.9001 10.7584 11.8992 10.7411 11.8975C10.4572 11.8695 10.2499 11.6166 10.2779 11.3328L10.5076 9.00864C10.5357 8.72472 10.7887 8.51772 11.0724 8.54546C11.3563 8.57352 11.5636 8.82639 11.5356 9.11025L11.3059 11.4344C11.2796 11.7009 11.0549 11.9001 10.7925 11.9001Z" fill="#B3404A"/>
<path d="M12.9219 11.1832C12.9201 11.1832 12.9184 11.1832 12.9166 11.1832C12.9064 11.1831 12.8962 11.1828 12.8859 11.1825L12.8805 11.1823C12.5953 11.1823 12.366 10.9511 12.366 10.6658C12.366 10.5787 12.3877 10.4966 12.4261 10.4246L12.5607 9.01052C12.5878 8.72657 12.8397 8.51844 13.1239 8.5453C13.4078 8.57237 13.6161 8.82448 13.5891 9.10843L13.436 10.7158C13.4107 10.9811 13.1879 11.1832 12.9219 11.1832Z" fill="#B3404A"/>
<path d="M11.5616 15.914C11.4295 15.914 11.2972 15.8636 11.1964 15.7627C10.9947 15.561 10.9947 15.234 11.1964 15.0323L13.8421 12.3866C14.0438 12.1849 14.3708 12.1849 14.5726 12.3866C14.7743 12.5883 14.7743 12.9154 14.5726 13.1171L11.9269 15.7627C11.826 15.8636 11.6938 15.914 11.5616 15.914Z" fill="#B3404A"/>
<path d="M14.2073 15.914C14.0751 15.914 13.9429 15.8636 13.8421 15.7627L11.1964 13.1171C10.9947 12.9154 10.9947 12.5883 11.1964 12.3866C11.3981 12.1849 11.7252 12.1849 11.9269 12.3866L14.5726 15.0323C14.7743 15.2339 14.7743 15.561 14.5726 15.7627C14.4717 15.8636 14.3395 15.914 14.2073 15.914Z" fill="#B3404A"/>
<path d="M14.3521 3.56396H1.70654V6.3727H14.3521V3.56396Z" fill="#F4B2B0"/>
<path d="M14.3522 6.88903H1.70646C1.4212 6.88903 1.18994 6.65781 1.18994 6.37252V3.56388C1.18994 3.27862 1.42116 3.04736 1.70646 3.04736H14.3522C14.6374 3.04736 14.8687 3.27859 14.8687 3.56388V6.37248C14.8686 6.65774 14.6374 6.88903 14.3522 6.88903ZM2.22294 5.85604H13.8356V4.0804H2.22294V5.85604Z" fill="#B3404A"/>
<path d="M8.02921 14.9264C7.74395 14.9264 7.5127 14.6952 7.5127 14.4099V8.99991C7.5127 8.71466 7.74392 8.4834 8.02921 8.4834C8.3145 8.4834 8.54573 8.71462 8.54573 8.99991V14.4099C8.54573 14.6952 8.31443 14.9264 8.02921 14.9264Z" fill="#B3404A"/>
</svg>
